<svg xmlns="http://www.w3.org/2000/svg"><style>:root svg:not(:target){display:none}</style><svg fill="currentColor" id="icon-mobil" viewBox="0 0 36 59"><path d="M28.294 0c2.087 0 3.893.795 5.418 2.385C35.237 3.975 36 5.858 36 8.034v42.932c0 2.176-.763 4.059-2.288 5.649-1.525 1.59-3.33 2.385-5.418 2.385H7.706c-2.168 0-3.994-.795-5.479-2.385C.742 55.025 0 53.142 0 50.966V8.034c0-2.176.742-4.059 2.227-5.649C3.712.795 5.538 0 7.706 0h20.588Zm-5.177 53.602v-2.636H12.883v2.636h10.234Zm8.308-8.034V8.034H4.455v37.534h26.97Z"></path></svg><svg fill="currentColor" id="icon-whatsap" viewBox="0 0 35 35"><path fill-rule="evenodd" clip-rule="evenodd" d="M25.397 20.974c-.435-.218-2.565-1.265-2.962-1.41-.397-.145-.685-.216-.976.218-.288.432-1.118 1.409-1.37 1.698-.254.29-.506.325-.94.11-.433-.22-1.83-.676-3.485-2.152-1.288-1.149-2.158-2.568-2.41-3.003-.253-.433-.028-.667.189-.883.195-.194.433-.506.65-.759.218-.253.29-.434.434-.724.145-.29.072-.542-.037-.759-.108-.217-.974-2.35-1.336-3.218-.351-.845-.709-.73-.974-.744a18.756 18.756 0 0 0-.831-.015c-.289 0-.759.108-1.155.543-.398.433-1.517 1.482-1.517 3.615 0 2.132 1.552 4.193 1.769 4.483.217.289 3.055 4.667 7.403 6.543 1.035.447 1.841.714 2.47.912 1.038.331 1.983.284 2.73.172.831-.124 2.564-1.049 2.925-2.06.36-1.013.36-1.88.253-2.061-.108-.181-.397-.289-.832-.506h.002ZM17.49 31.77h-.006c-2.582 0-5.117-.694-7.338-2.01l-.525-.312-5.457 1.432 1.456-5.32-.342-.545a14.38 14.38 0 0 1-2.204-7.671C3.077 9.396 9.544 2.93 17.496 2.93c3.85 0 7.47 1.502 10.19 4.226a14.328 14.328 0 0 1 4.218 10.198c-.003 7.948-6.47 14.416-14.414 14.416ZM29.757 5.087A17.23 17.23 0 0 0 17.488 0C7.93 0 .148 7.78.146 17.343a17.301 17.301 0 0 0 2.314 8.67L0 35l9.193-2.412a17.327 17.327 0 0 0 8.29 2.112h.007c9.558 0 17.34-7.78 17.342-17.344a17.24 17.24 0 0 0-5.075-12.27Z"></path></svg></svg>